<?xml version="1.0" encoding="UTF-8"?>
<svg xmlns="http://www.w3.org/2000/svg" xmlns:xlink="http://www.w3.org/1999/xlink" width="223.68pt" height="223.09pt" viewBox="0 0 223.68 223.09" version="1.1">
<defs>
<clipPath id="clip1">
  <path d="M 0 0 L 223.679688 0 L 223.679688 223.089844 L 0 223.089844 Z M 0 0 "/>
</clipPath>
</defs>
<g id="surface1">
<g clip-path="url(#clip1)" clip-rule="nonzero">
<path style=" stroke:none;fill-rule:nonzero;fill:rgb(0.799561%,0.799561%,0.799561%);fill-opacity:1;" d="M 223.679688 111.546875 C 223.679688 173.152344 173.605469 223.089844 111.839844 223.089844 C 50.070313 223.089844 0 173.152344 0 111.546875 C 0 49.941406 50.070313 0.00390625 111.839844 0.00390625 C 173.605469 0.00390625 223.679688 49.941406 223.679688 111.546875 "/>
</g>
<path style=" stroke:none;fill-rule:nonzero;fill:rgb(100%,100%,100%);fill-opacity:1;" d="M 128.714844 81.871094 L 158.859375 142.160156 L 100.90625 142.160156 Z M 116.289063 6.472656 L 109.96875 19.261719 L 43.433594 153.757813 L 79.257813 154.144531 L 60.84375 189.414063 L 61.097656 189.746094 C 35.054688 173.4375 17.730469 144.496094 17.730469 111.503906 C 17.730469 65.941406 50.765625 28.097656 94.1875 20.605469 L 100.90625 6.941406 C 47.984375 12.40625 6.714844 57.136719 6.714844 111.503906 C 6.714844 153.441406 31.277344 189.648438 66.796875 206.515625 L 72.714844 195.910156 C 72.675781 195.890625 72.636719 195.875 72.597656 195.855469 L 72.769531 195.777344 L 92.65625 154.144531 L 176.992188 154.144531 L 128.554688 57.4375 L 86.644531 142.117188 L 63.628906 141.777344 L 123.671875 20.28125 C 168.121094 26.898438 202.210938 65.214844 202.210938 111.503906 C 202.210938 162.445313 160.914063 203.738281 109.96875 203.738281 C 101.960938 203.738281 94.1875 202.71875 86.777344 200.800781 L 81.21875 212.097656 C 90.90625 215.039063 101.1875 216.625 111.839844 216.625 C 169.898438 216.625 216.960938 169.5625 216.960938 111.503906 C 216.960938 54.933594 172.28125 8.800781 116.289063 6.472656 "/>
</g>
</svg>
